<svg xmlns="http://www.w3.org/2000/svg" viewBox="0 0 175.32 39.45"><defs><style>.cls-1{fill:#fff;}.cls-2{fill:#ffdf00;}</style></defs><g id="Camada_2" data-name="Camada 2"><g id="Camada_1-2" data-name="Camada 1"><polygon class="cls-1" points="73.41 0.44 73.41 5.02 66.76 5.02 66.76 16.15 61.3 16.15 61.3 5.02 54.65 5.02 54.65 0.44 73.41 0.44"/><path class="cls-1" d="M94.49,16.15H88.68L87.4,13.4H78.76l-1.29,2.75H71.66L79.19.44H87Zm-11.41-12L80.59,9.47h5Z"/><path class="cls-1" d="M114.18,10.83A3,3,0,0,1,115,13v3.15H109.5V13.92a2.14,2.14,0,0,0-.35-1.42,2,2,0,0,0-1.4-.37h-6.06v4H96.23V.44h12.22a7.71,7.71,0,0,1,4.87,1.3A4.52,4.52,0,0,1,115,5.52a5,5,0,0,1-.74,2.86A4.15,4.15,0,0,1,112,10a3.25,3.25,0,0,1,2.15.86m-12.49-6v3h5.45a7,7,0,0,0,1.2-.08A1.12,1.12,0,0,0,109,7.3a1.62,1.62,0,0,0,.26-1,1.61,1.61,0,0,0-.26-1,1.12,1.12,0,0,0-.68-.39,7,7,0,0,0-1.2-.08Z"/><path class="cls-1" d="M118.18,3.72A7.74,7.74,0,0,1,121.67.93,13.19,13.19,0,0,1,126.78,0a13,13,0,0,1,4.72.79A7.66,7.66,0,0,1,134.75,3a5.31,5.31,0,0,1,1.3,3.22h-5.8a2.15,2.15,0,0,0-1-1.13,4.83,4.83,0,0,0-2.4-.49,4.3,4.3,0,0,0-3.19,1,3.85,3.85,0,0,0-1,2.86,3.8,3.8,0,0,0,1.09,2.92c.73.69,2,1,3.82,1a10.6,10.6,0,0,0,2.22-.21,11.49,11.49,0,0,0,2-.62v-.94H126.8V7.4h9.25v7a16.27,16.27,0,0,1-4.34,1.71,20.35,20.35,0,0,1-4.54.47,14.38,14.38,0,0,1-5.39-.93,7.81,7.81,0,0,1-3.59-2.81,7.9,7.9,0,0,1-1.27-4.57,7.93,7.93,0,0,1,1.26-4.55"/><polygon class="cls-1" points="154.6 0.44 154.6 4.58 143.91 4.58 143.91 6.22 154.16 6.22 154.16 10.37 143.91 10.37 143.91 12 154.6 12 154.6 16.15 138.45 16.15 138.45 0.44 154.6 0.44"/><polygon class="cls-1" points="175.32 0.44 175.32 5.02 168.67 5.02 168.67 16.15 163.22 16.15 163.22 5.02 156.56 5.02 156.56 0.44 175.32 0.44"/><path class="cls-1" d="M72.57,32.76a4,4,0,0,1,.58,2.16,4.11,4.11,0,0,1-1.24,3.18,5.41,5.41,0,0,1-3.78,1.14H54.65V23.9H68A4.94,4.94,0,0,1,71.58,25a3.82,3.82,0,0,1,1.09,2.8,4.5,4.5,0,0,1-.44,2A4.16,4.16,0,0,1,71,31.32a4.38,4.38,0,0,1,1.6,1.44M57.44,26.3v4H67a8.33,8.33,0,0,0,1.52-.1,1.28,1.28,0,0,0,.82-.52,2.37,2.37,0,0,0,.32-1.39,2.39,2.39,0,0,0-.32-1.39,1.31,1.31,0,0,0-.82-.54A9.35,9.35,0,0,0,67,26.3ZM67.52,36.84a8,8,0,0,0,1.49-.1,1.27,1.27,0,0,0,.83-.55,2.6,2.6,0,0,0,.32-1.44,2.56,2.56,0,0,0-.32-1.44,1.28,1.28,0,0,0-.83-.56,9,9,0,0,0-1.49-.1H57.44v4.19Z"/><path class="cls-1" d="M95.64,39.24H92.48l-1.9-3.31H79.43l-1.9,3.31H74.35L83.23,23.9h3.53ZM85,26.22l-4.19,7.31h8.37Z"/><polygon class="cls-1" points="114.28 36.58 114.28 23.9 117.07 23.9 117.07 39.24 113.08 39.24 100.77 26.56 100.77 39.24 97.98 39.24 97.98 23.9 101.97 23.9 114.28 36.58"/><polygon class="cls-1" points="134.76 23.9 139.19 23.9 130.38 30.8 139.19 39.24 135.24 39.24 128.2 32.52 123.42 36.25 123.42 39.24 120.63 39.24 120.63 23.9 123.42 23.9 123.42 32.78 134.76 23.9"/><path class="cls-2" d="M36.43.43H2.65A2.62,2.62,0,0,0,0,3.05L0,8.18H39V3.05A2.61,2.61,0,0,0,36.43.43"/><polygon class="cls-1" points="0.03 16.04 0.03 23.84 15.62 23.84 15.62 39.45 23.42 39.45 23.42 23.84 39.03 23.84 39.03 16.04 0.03 16.04"/><path class="cls-2" d="M31.28,39.45h5.51A2.24,2.24,0,0,0,39,37.21V31.7H31.28Z"/><path class="cls-2" d="M7.78,39.45H2.26A2.23,2.23,0,0,1,0,37.21V31.7H7.78Z"/></g></g></svg>